<?xml version="1.0" encoding="UTF-8"?><svg id="Capa_1" xmlns="http://www.w3.org/2000/svg" viewBox="0 0 980 263"><defs><style>.cls-1{fill:#ff1c0a;stroke:#ff1c0a;stroke-miterlimit:10;stroke-width:10px;}</style></defs><path class="cls-1" d="M45,220.5l.5-193.38h23.76l-.12,191.23-24.14,2.15Z"/><path class="cls-1" d="M96.86,27.12h45.95c12.05,0,22.71,3.7,31.97,11.37,9.08,7.67,16.25,18.25,21.49,32,5.07,13.75,7.69,29.89,7.69,48.66s-2.62,34.91-7.69,48.66c-5.24,13.75-12.4,24.33-21.49,32-9.26,7.67-19.74,10.74-31.8,10.74l-46.86,3.55,.74-187Zm44.55,152.6c7.51,0,14.15-2.38,19.92-7.14s10.31-11.64,13.63-20.63c3.32-8.99,4.89-19.84,4.89-32.79s-1.57-23.8-4.89-32.8c-3.32-8.99-7.86-15.87-13.63-20.63s-12.4-7.14-19.92-7.14h-20.79v121.13h20.79Z"/><path class="cls-1" d="M225.08,27.12h87.7v31.47h-63.94v43.11h61.84v31.47h-61.84l-.08,40.47h64.61v22.72l-88.75,9.23,.46-178.48Z"/><path class="cls-1" d="M409.38,169.4h-49.09l-5.74,23.41-25.56,2.13L373.04,27.12h24.63l41.36,162.15-24.14,.71-5.51-20.57Zm-7.34-31.21l-17.12-71.14-17.12,71.14h34.24Z"/><path class="cls-1" d="M546.24,189.97l-85.2-1.42-.13-161.44h23.76l-.2,135.17,61.77,2.13v25.56Z"/><path class="cls-1" d="M566.77,27.12h85.78v31.21h-62.02v47.6h59.92v31.21h-59.92l.44,54.26-24.85-.71,.66-163.57Z"/><path class="cls-1" d="M760.65,203.46l-85.91-7.1,.34-169.25h23.76V173.64l61.81,3.55v26.27Z"/><path class="cls-1" d="M781.24,204.88l-.3-177.77h23.76l.68,179.9-24.14-2.13Z"/><path class="cls-1" d="M863.19,115.45l-37.45-88.33h26.31l25.34,61.09,24.54-61.09h25.99l-37.77,88.07,44.45,105.32-27.55-2.84-31.1-75.24-27.94,68.85-25.58-2.84,40.77-92.98Z"/></svg>